<svg  viewBox="0 0 39 26" fill="none" xmlns="http://www.w3.org/2000/svg">
<rect y="-0.000244141" width="38.1875" height="26" rx="5" fill="#7D6F93"/>
<rect x="24.4312" y="3.59976" width="18.5969" height="10.8781" rx="4.65" transform="rotate(90 24.4312 3.59976)" fill="#7D6F93" stroke="#A4A3A6" stroke-width="0.7"/>
<path d="M-4.69987e-08 16.4529L10.0411 16.4529C11.7754 16.4529 13.2232 15.1298 13.3791 13.4025V13.4025C13.3972 13.2021 13.3972 13.0005 13.3791 12.8001V12.8001C13.2232 11.0729 11.7754 9.74976 10.0411 9.74976L5.39007e-07 9.74976" stroke="#A4A3A6" stroke-width="0.7"/>
<path d="M38.1875 9.74975L27.9671 9.74976C26.2996 9.74976 24.8688 10.9721 24.58 12.6143V12.6143C24.5122 13.0002 24.5134 13.4001 24.5853 13.7852V13.7852C24.8742 15.3318 26.2242 16.4529 27.7974 16.4529L38.1875 16.4529" stroke="#A4A3A6" stroke-width="0.7"/>
<line x1="19.0375" y1="-0.000244141" x2="19.0375" y2="3.65601" stroke="#A4A3A6" stroke-width="0.7"/>
<line x1="19.0375" y1="22.3435" x2="19.0375" y2="25.9998" stroke="#A4A3A6" stroke-width="0.7"/>
</svg>
