<svg width="20" height="20" viewBox="0 0 20 20" fill="none" xmlns="http://www.w3.org/2000/svg">
<path d="M17.5 4.0625H2.5C2.25136 4.0625 2.0129 4.16127 1.83709 4.33709C1.66127 4.5129 1.5625 4.75136 1.5625 5V15C1.5625 15.2486 1.66127 15.4871 1.83709 15.6629C2.0129 15.8387 2.25136 15.9375 2.5 15.9375H17.5C17.7486 15.9375 17.9871 15.8387 18.1629 15.6629C18.3387 15.4871 18.4375 15.2486 18.4375 15V5C18.4375 4.75136 18.3387 4.5129 18.1629 4.33709C17.9871 4.16127 17.7486 4.0625 17.5 4.0625ZM2.5 4.6875H17.5C17.5829 4.6875 17.6624 4.72042 17.721 4.77903C17.7796 4.83763 17.8125 4.91712 17.8125 5V7.1875H2.1875V5C2.1875 4.91712 2.22042 4.83763 2.27903 4.77903C2.33763 4.72042 2.41712 4.6875 2.5 4.6875ZM17.5 15.3125H2.5C2.41712 15.3125 2.33763 15.2796 2.27903 15.221C2.22042 15.1624 2.1875 15.0829 2.1875 15V7.8125H17.8125V15C17.8125 15.0829 17.7796 15.1624 17.721 15.221C17.6624 15.2796 17.5829 15.3125 17.5 15.3125ZM15.9375 13.125C15.9375 13.2079 15.9046 13.2874 15.846 13.346C15.7874 13.4046 15.7079 13.4375 15.625 13.4375H13.125C13.0421 13.4375 12.9626 13.4046 12.904 13.346C12.8454 13.2874 12.8125 13.2079 12.8125 13.125C12.8125 13.0421 12.8454 12.9626 12.904 12.904C12.9626 12.8454 13.0421 12.8125 13.125 12.8125H15.625C15.7079 12.8125 15.7874 12.8454 15.846 12.904C15.9046 12.9626 15.9375 13.0421 15.9375 13.125ZM10.9375 13.125C10.9375 13.2079 10.9046 13.2874 10.846 13.346C10.7874 13.4046 10.7079 13.4375 10.625 13.4375H9.375C9.29212 13.4375 9.21263 13.4046 9.15403 13.346C9.09542 13.2874 9.0625 13.2079 9.0625 13.125C9.0625 13.0421 9.09542 12.9626 9.15403 12.904C9.21263 12.8454 9.29212 12.8125 9.375 12.8125H10.625C10.7079 12.8125 10.7874 12.8454 10.846 12.904C10.9046 12.9626 10.9375 13.0421 10.9375 13.125Z" fill="#59595A"/>
</svg>
