<svg width="23" height="24" viewBox="0 0 23 24" fill="#747475" xmlns="http://www.w3.org/2000/svg">
<path fill-rule="evenodd" clip-rule="evenodd" d="M13.5715 11.0357C13.5123 11.0357 13.4643 11.0837 13.4643 11.1428V21.4286C13.4643 21.4877 13.5123 21.5357 13.5715 21.5357H20.4286C20.4878 21.5357 20.5358 21.4877 20.5358 21.4286V11.1428C20.5358 11.0837 20.4878 11.0357 20.4286 11.0357H13.5715ZM11.9643 11.1428C11.9643 10.2552 12.6839 9.53571 13.5715 9.53571H20.4286C21.3162 9.53571 22.0358 10.2552 22.0358 11.1428V21.4286C22.0358 22.3162 21.3162 23.0357 20.4286 23.0357H13.5715C12.6839 23.0357 11.9643 22.3162 11.9643 21.4286V11.1428Z" />
<path fill-rule="evenodd" clip-rule="evenodd" d="M13.5715 1.75C13.5123 1.75 13.4643 1.79797 13.4643 1.85714V5.30286C13.4643 5.36203 13.5123 5.41 13.5715 5.41H20.4286C20.4878 5.41 20.5357 5.36203 20.5357 5.30286V1.85714C20.5357 1.79797 20.4878 1.75 20.4286 1.75H13.5715ZM11.9643 1.85714C11.9643 0.969542 12.6839 0.25 13.5715 0.25H20.4286C21.3162 0.25 22.0357 0.969542 22.0357 1.85714V5.30286C22.0357 6.19046 21.3162 6.91 20.4286 6.91H13.5715C12.6839 6.91 11.9643 6.19046 11.9643 5.30286V1.85714Z" />
<path fill-rule="evenodd" clip-rule="evenodd" d="M1.85717 1.75C1.798 1.75 1.75003 1.79797 1.75003 1.85714V12.1429C1.75003 12.202 1.798 12.25 1.85717 12.25H8.71432C8.77349 12.25 8.82146 12.202 8.82146 12.1429V1.85714C8.82146 1.79797 8.77349 1.75 8.71432 1.75H1.85717ZM0.250031 1.85714C0.250031 0.969542 0.969573 0.25 1.85717 0.25H8.71432C9.60192 0.25 10.3215 0.969542 10.3215 1.85714V12.1429C10.3215 13.0305 9.60192 13.75 8.71432 13.75H1.85717C0.969573 13.75 0.250031 13.0305 0.250031 12.1429V1.85714Z" />
<path fill-rule="evenodd" clip-rule="evenodd" d="M1.85717 17.8757C1.798 17.8757 1.75003 17.9237 1.75003 17.9828V21.4286C1.75003 21.4877 1.798 21.5357 1.85717 21.5357H8.71432C8.77349 21.5357 8.82146 21.4877 8.82146 21.4286V17.9828C8.82146 17.9237 8.77349 17.8757 8.71432 17.8757H1.85717ZM0.250031 17.9828C0.250031 17.0952 0.969573 16.3757 1.85717 16.3757H8.71432C9.60192 16.3757 10.3215 17.0952 10.3215 17.9828V21.4286C10.3215 22.3162 9.60192 23.0357 8.71432 23.0357H1.85717C0.969573 23.0357 0.250031 22.3162 0.250031 21.4286V17.9828Z" />
</svg>
