<svg width="24" height="24" viewBox="0 0 24 24" fill="#747475" xmlns="http://www.w3.org/2000/svg">
<path d="M6.75 10.5C6.00832 10.5 5.2833 10.2801 4.66661 9.86801C4.04993 9.45596 3.56928 8.87029 3.28545 8.18506C3.00162 7.49984 2.92736 6.74584 3.07206 6.01841C3.21675 5.29098 3.5739 4.6228 4.09835 4.09835C4.6228 3.5739 5.29098 3.21675 6.01841 3.07206C6.74584 2.92736 7.49984 3.00162 8.18506 3.28545C8.87029 3.56928 9.45596 4.04993 9.86801 4.66661C10.2801 5.2833 10.5 6.00832 10.5 6.75C10.499 7.74426 10.1036 8.69751 9.40056 9.40056C8.69751 10.1036 7.74426 10.499 6.75 10.5ZM6.75 4.5C6.30499 4.5 5.86998 4.63196 5.49997 4.8792C5.12996 5.12643 4.84157 5.47783 4.67127 5.88896C4.50098 6.3001 4.45642 6.7525 4.54323 7.18895C4.63005 7.62541 4.84434 8.02632 5.15901 8.34099C5.47368 8.65566 5.87459 8.86995 6.31105 8.95677C6.74751 9.04359 7.19991 8.99903 7.61104 8.82873C8.02217 8.65843 8.37358 8.37005 8.62081 8.00003C8.86804 7.63002 9 7.19501 9 6.75C8.99941 6.15345 8.76216 5.5815 8.34033 5.15967C7.91851 4.73784 7.34656 4.5006 6.75 4.5ZM3 19.9395L19.9388 3L21 4.06125L4.0605 21L3 19.9395ZM17.25 21C16.5083 21 15.7833 20.7801 15.1666 20.368C14.5499 19.956 14.0693 19.3703 13.7855 18.6851C13.5016 17.9998 13.4274 17.2458 13.5721 16.5184C13.7168 15.791 14.0739 15.1228 14.5984 14.5984C15.1228 14.0739 15.791 13.7168 16.5184 13.5721C17.2458 13.4274 17.9998 13.5016 18.6851 13.7855C19.3703 14.0693 19.956 14.5499 20.368 15.1666C20.7801 15.7833 21 16.5083 21 17.25C20.999 18.2443 20.6036 19.1975 19.9006 19.9006C19.1975 20.6036 18.2443 20.999 17.25 21ZM17.25 15C16.805 15 16.37 15.132 16 15.3792C15.63 15.6264 15.3416 15.9778 15.1713 16.389C15.001 16.8001 14.9564 17.2525 15.0432 17.689C15.1301 18.1254 15.3443 18.5263 15.659 18.841C15.9737 19.1557 16.3746 19.37 16.811 19.4568C17.2475 19.5436 17.6999 19.499 18.111 19.3287C18.5222 19.1584 18.8736 18.87 19.1208 18.5C19.368 18.13 19.5 17.695 19.5 17.25C19.4994 16.6534 19.2622 16.0815 18.8403 15.6597C18.4185 15.2378 17.8466 15.0006 17.25 15Z" />
</svg>
