<svg width="20" height="20" viewBox="0 0 20 20" fill="#59595A" xmlns="http://www.w3.org/2000/svg">
<path fill-rule="evenodd" clip-rule="evenodd" d="M10 4.5C10.2761 4.5 10.5 4.72386 10.5 5V5.61667H10.935C12.2588 5.61667 13.285 6.73039 13.285 8.05833C13.285 8.33448 13.0611 8.55833 12.785 8.55833C12.5089 8.55833 12.285 8.33448 12.285 8.05833C12.285 7.23628 11.6612 6.61667 10.935 6.61667H10.5V9.64236L11.852 10.112C12.2173 10.2415 12.597 10.4302 12.8754 10.7853C13.1584 11.1463 13.285 11.6118 13.285 12.1917C13.285 13.3796 12.3572 14.3833 11.1683 14.3833H10.5V15C10.5 15.2761 10.2761 15.5 10 15.5C9.72386 15.5 9.5 15.2761 9.5 15V14.3833H9.07667C7.75288 14.3833 6.72667 13.2696 6.72667 11.9417C6.72667 11.6655 6.95052 11.4417 7.22667 11.4417C7.50281 11.4417 7.72667 11.6655 7.72667 11.9417C7.72667 12.7637 8.35045 13.3833 9.07667 13.3833H9.5V10.3536L8.15963 9.88795C7.79437 9.75849 7.41466 9.56984 7.13629 9.21472C6.85327 8.85368 6.72667 8.38822 6.72667 7.80833C6.72667 6.62041 7.65446 5.61667 8.84333 5.61667H9.5V5C9.5 4.72386 9.72386 4.5 10 4.5ZM9.5 6.61667H8.84333C8.24888 6.61667 7.72667 7.12959 7.72667 7.80833C7.72667 8.24512 7.82089 8.46715 7.9233 8.59778C8.03016 8.73411 8.20007 8.84117 8.49228 8.94489L9.5 9.29496V6.61667ZM10.5 10.701V13.3833H11.1683C11.7628 13.3833 12.285 12.8704 12.285 12.1917C12.285 11.7549 12.1908 11.5329 12.0884 11.4022C11.9815 11.2659 11.8116 11.1588 11.5194 11.0551L10.5 10.701Z" />
<path fill-rule="evenodd" clip-rule="evenodd" d="M1.16667 10C1.16667 5.12136 5.12136 1.16667 10 1.16667C14.8786 1.16667 18.8333 5.12136 18.8333 10C18.8333 14.8786 14.8786 18.8333 10 18.8333C5.12136 18.8333 1.16667 14.8786 1.16667 10ZM10 2.16667C5.67364 2.16667 2.16667 5.67365 2.16667 10C2.16667 14.3264 5.67364 17.8333 10 17.8333C14.3264 17.8333 17.8333 14.3264 17.8333 10C17.8333 5.67365 14.3264 2.16667 10 2.16667Z"  />
</svg>
