<svg width="18" height="5" viewBox="0 0 18 5" fill="none" xmlns="http://www.w3.org/2000/svg">
<path d="M4 2.5C4 3.03043 3.78929 3.53914 3.41421 3.91421C3.03914 4.28929 2.53043 4.5 2 4.5C1.46957 4.5 0.960859 4.28929 0.585786 3.91421C0.210714 3.53914 0 3.03043 0 2.5C0 1.96957 0.210714 1.46086 0.585786 1.08579C0.960859 0.710714 1.46957 0.5 2 0.5C2.53043 0.5 3.03914 0.710714 3.41421 1.08579C3.78929 1.46086 4 1.96957 4 2.5ZM11 2.5C11 3.03043 10.7893 3.53914 10.4142 3.91421C10.0391 4.28929 9.53043 4.5 9 4.5C8.46957 4.5 7.96086 4.28929 7.58579 3.91421C7.21071 3.53914 7 3.03043 7 2.5C7 1.96957 7.21071 1.46086 7.58579 1.08579C7.96086 0.710714 8.46957 0.5 9 0.5C9.53043 0.5 10.0391 0.710714 10.4142 1.08579C10.7893 1.46086 11 1.96957 11 2.5ZM18 2.5C18 3.03043 17.7893 3.53914 17.4142 3.91421C17.0391 4.28929 16.5304 4.5 16 4.5C15.4696 4.5 14.9609 4.28929 14.5858 3.91421C14.2107 3.53914 14 3.03043 14 2.5C14 1.96957 14.2107 1.46086 14.5858 1.08579C14.9609 0.710714 15.4696 0.5 16 0.5C16.5304 0.5 17.0391 0.710714 17.4142 1.08579C17.7893 1.46086 18 1.96957 18 2.5Z" fill="black"/>
</svg>
