<svg width="32" height="32" viewBox="0 0 32 32" fill="white" stroke="#151718" xmlns="http://www.w3.org/2000/svg">
  <path d="M9.71195 7.54239C10.3242 5.86554 11.9191 4.75 13.7042 4.75H17.1205C20.0073 4.75 22.0541 7.56623 21.163 10.3119L18.8912 17.3119C18.3226 19.0637 16.6905 20.25 14.8487 20.25H11.1484C8.19671 20.25 6.14384 17.3151 7.15617 14.5424L9.71195 7.54239Z" stroke-width="1.5"/>
  <path d="M13.712 14.5424C14.3242 12.8655 15.9191 11.75 17.7042 11.75H21.1205C24.0073 11.75 26.0541 14.5662 25.163 17.3119L22.8912 24.3119C22.3226 26.0637 20.6905 27.25 18.8487 27.25H15.1484C12.1967 27.25 10.1438 24.3151 11.1562 21.5424L13.712 14.5424Z" stroke-width="1.5"/>
</svg>
