<svg width="20" height="20" viewBox="0 0 20 20" fill="none" xmlns="http://www.w3.org/2000/svg">
<path d="M10.0167 2.42499C7.25835 2.42499 5.01668 4.66665 5.01668 7.42499V9.83332C5.01668 10.3417 4.80001 11.1167 4.54168 11.55L3.58335 13.1417C2.99168 14.125 3.40001 15.2167 4.48335 15.5833C8.07501 16.7833 11.95 16.7833 15.5417 15.5833C16.55 15.25 16.9917 14.0583 16.4417 13.1417L15.4833 11.55C15.2333 11.1167 15.0167 10.3417 15.0167 9.83332V7.42499C15.0167 4.67499 12.7667 2.42499 10.0167 2.42499Z" stroke="#A0A0A0" stroke-width="1.5" stroke-miterlimit="10" stroke-linecap="round"/>
<path d="M11.5583 2.66667C10.5506 2.37966 9.48272 2.37966 8.47498 2.66667C8.71664 2.05 9.31664 1.61667 10.0166 1.61667C10.7166 1.61667 11.3166 2.05 11.5583 2.66667Z" stroke="#A0A0A0" stroke-width="1.5" stroke-miterlimit="10" stroke-linecap="round" stroke-linejoin="round"/>
<path d="M12.5167 15.8833C12.5167 17.2583 11.3917 18.3833 10.0167 18.3833C9.33333 18.3833 8.7 18.1 8.25 17.65C7.78179 17.1811 7.51816 16.546 7.51666 15.8833" stroke="#A0A0A0" stroke-width="1.5" stroke-miterlimit="10"/>
</svg>
