<svg width="8" height="8" viewBox="0 0 8 8" fill="none" xmlns="http://www.w3.org/2000/svg">
<path d="M2.25 3.5C2.00277 3.5 1.7611 3.42669 1.55554 3.28934C1.34998 3.15199 1.18976 2.95676 1.09515 2.72835C1.00054 2.49995 0.975787 2.24861 1.02402 2.00614C1.07225 1.76366 1.1913 1.54093 1.36612 1.36612C1.54093 1.1913 1.76366 1.07225 2.00614 1.02402C2.24861 0.975787 2.49995 1.00054 2.72835 1.09515C2.95676 1.18976 3.15199 1.34998 3.28934 1.55554C3.42669 1.7611 3.5 2.00277 3.5 2.25C3.49967 2.58142 3.36787 2.89917 3.13352 3.13352C2.89917 3.36787 2.58142 3.49967 2.25 3.5ZM1 6.6465L6.64625 1L7 1.35375L1.3535 7L1 6.6465ZM5.75 7C5.50277 7 5.2611 6.92669 5.05554 6.78934C4.84998 6.65199 4.68976 6.45676 4.59515 6.22835C4.50054 5.99995 4.47579 5.74861 4.52402 5.50614C4.57225 5.26366 4.6913 5.04093 4.86612 4.86612C5.04093 4.6913 5.26366 4.57225 5.50614 4.52402C5.74861 4.47579 5.99995 4.50054 6.22835 4.59515C6.45676 4.68976 6.65199 4.84998 6.78934 5.05554C6.92669 5.2611 7 5.50277 7 5.75C6.99967 6.08142 6.86787 6.39917 6.63352 6.63352C6.39917 6.86787 6.08142 6.99967 5.75 7Z" fill="white"/>
</svg>
