<svg width="16" height="17" viewBox="0 0 16 17" fill="none" xmlns="http://www.w3.org/2000/svg">
<path d="M12 9.1653H8.66665V12.4986C8.66665 12.6754 8.59641 12.845 8.47138 12.97C8.34636 13.0951 8.17679 13.1653 7.99998 13.1653C7.82317 13.1653 7.6536 13.0951 7.52858 12.97C7.40355 12.845 7.33331 12.6754 7.33331 12.4986V9.1653H3.99998C3.82317 9.1653 3.6536 9.09507 3.52858 8.97004C3.40355 8.84502 3.33331 8.67545 3.33331 8.49864C3.33331 8.32183 3.40355 8.15226 3.52858 8.02723C3.6536 7.90221 3.82317 7.83197 3.99998 7.83197H7.33331V4.49864C7.33331 4.32183 7.40355 4.15226 7.52858 4.02723C7.6536 3.90221 7.82317 3.83197 7.99998 3.83197C8.17679 3.83197 8.34636 3.90221 8.47138 4.02723C8.59641 4.15226 8.66665 4.32183 8.66665 4.49864V7.83197H12C12.1768 7.83197 12.3464 7.90221 12.4714 8.02723C12.5964 8.15226 12.6666 8.32183 12.6666 8.49864C12.6666 8.67545 12.5964 8.84502 12.4714 8.97004C12.3464 9.09507 12.1768 9.1653 12 9.1653Z" fill="white"/>
</svg>
