<svg width="20" height="20" viewBox="0 0 20 20" fill="none" xmlns="http://www.w3.org/2000/svg">
<g clip-path="url(#clip0_4_842)">
<path d="M18.3333 18.3334L16.6667 16.6667M9.58332 17.5C10.623 17.5 11.6524 17.2952 12.6129 16.8974C13.5734 16.4995 14.4461 15.9164 15.1813 15.1813C15.9164 14.4462 16.4995 13.5734 16.8974 12.6129C17.2952 11.6524 17.5 10.623 17.5 9.58335C17.5 8.54372 17.2952 7.51427 16.8974 6.55378C16.4995 5.59328 15.9164 4.72056 15.1813 3.98542C14.4461 3.25029 13.5734 2.66716 12.6129 2.26931C11.6524 1.87146 10.623 1.66669 9.58332 1.66669C7.48369 1.66669 5.47006 2.50076 3.98539 3.98542C2.50073 5.47009 1.66666 7.48372 1.66666 9.58335C1.66666 11.683 2.50073 13.6966 3.98539 15.1813C5.47006 16.6659 7.48369 17.5 9.58332 17.5Z" stroke="#A0A0A0" stroke-width="1.5" stroke-linecap="round" stroke-linejoin="round"/>
</g>
<defs>
<clipPath id="clip0_4_842">
<rect width="20" height="20" fill="white"/>
</clipPath>
</defs>
</svg>
