<svg width="24" height="24" viewBox="0 0 24 24" fill="#747475" xmlns="http://www.w3.org/2000/svg">
<path fill-rule="evenodd" clip-rule="evenodd" d="M9.4997 8.25884C10.3653 7.68038 11.4047 7.41996 12.4408 7.52194C13.4769 7.62392 14.4456 8.08201 15.1818 8.81814C15.3225 8.95879 15.4015 9.14956 15.4015 9.34848C15.4015 9.54739 15.3225 9.73817 15.1818 9.87883L12.5303 12.5303C12.2374 12.8232 11.7626 12.8232 11.4697 12.5303C11.1768 12.2374 11.1768 11.7626 11.4697 11.4697L13.5234 9.41589C13.1502 9.19587 12.731 9.05775 12.2939 9.01473C11.6031 8.94674 10.9102 9.12035 10.3331 9.50599C9.75606 9.89163 9.33056 10.4654 9.12912 11.1296C8.92769 11.7938 8.96279 12.5073 9.22844 13.1485C9.49409 13.7898 9.97386 14.319 10.586 14.6462C11.1981 14.9733 11.9048 15.0781 12.5855 14.9426C13.2662 14.8072 13.8789 14.4399 14.3192 13.9033C14.7595 13.3667 15.0001 12.6941 15 12.0001C15 11.5858 15.3357 11.25 15.7499 11.25C16.1642 11.25 16.5 11.5857 16.5 11.9999C16.5001 13.041 16.1392 14.05 15.4788 14.8548C14.8184 15.6596 13.8993 16.2106 12.8782 16.4138C11.8572 16.617 10.7972 16.4598 9.879 15.9691C8.96079 15.4784 8.24114 14.6845 7.84266 13.7227C7.44418 12.7608 7.39153 11.6906 7.69368 10.6943C7.99584 9.698 8.63409 8.8373 9.4997 8.25884Z"  />
<path fill-rule="evenodd" clip-rule="evenodd" d="M10.9292 2.18923C11.2147 1.90789 11.5994 1.75018 12.0002 1.75018C12.4011 1.75018 12.7859 1.90791 13.0714 2.18928M10.9292 2.18923C9.23223 3.86031 7.02017 4.19705 5.00556 4.25919C4.56567 4.27111 4.14595 4.44643 3.82827 4.75098C3.51114 5.055 3.3184 5.46602 3.28742 5.90416C3.1215 7.92907 3.1094 9.96365 3.25122 11.9904C3.25167 11.9969 3.25226 12.0034 3.25297 12.01C3.78234 16.8408 7.15826 20.61 11.8371 22.2227C11.9426 22.2591 12.0574 22.2591 12.1629 22.2227C16.8417 20.61 20.2177 16.8408 20.747 12.01C20.7477 12.0035 20.7483 11.9969 20.7488 11.9904C20.8908 9.96368 20.8788 7.92907 20.7131 5.90412C20.6821 5.466 20.4893 5.05499 20.1722 4.75098C19.8542 4.44614 19.434 4.27078 18.9937 4.25916L18.9805 4.75899L18.9959 4.25922C16.9805 4.19715 14.7682 3.86057 13.0715 2.1894M12.0002 2.75018C11.8621 2.75018 11.7294 2.80457 11.631 2.90158L11.6308 2.90174C9.65303 4.8494 7.11053 5.19482 5.03539 5.25875L5.03319 5.25882L5.03319 5.25881C4.84155 5.26387 4.65868 5.34018 4.5203 5.47285C4.38192 5.60551 4.29796 5.785 4.28482 5.97625L4.28437 5.98286L4.28433 5.98286C4.12257 7.95506 4.11046 9.93668 4.24809 11.9107C4.7271 16.2464 7.72562 19.6871 12 21.22C16.2744 19.6871 19.2729 16.2464 19.7519 11.9107C19.8897 9.93667 19.8778 7.95504 19.7162 5.98282L19.7156 5.97625L19.7157 5.97625C19.7025 5.785 19.6186 5.60551 19.4802 5.47285C19.3418 5.34018 19.1589 5.26387 18.9673 5.25881L18.9651 5.25875C16.8895 5.19482 14.3469 4.84942 12.3696 2.9017L12.3695 2.90158C12.2711 2.80457 12.1384 2.75018 12.0002 2.75018Z" />
</svg>
