<svg width="24" height="24" viewBox="0 0 24 24"  fill="#747475" xmlns="http://www.w3.org/2000/svg">
<path fill-rule="evenodd" clip-rule="evenodd" d="M9.52513 9.52513C10.1815 8.86875 11.0717 8.5 12 8.5C12.9283 8.5 13.8185 8.86875 14.4749 9.52513C15.1313 10.1815 15.5 11.0717 15.5 12C15.5 12.9283 15.1313 13.8185 14.4749 14.4749C13.8185 15.1313 12.9283 15.5 12 15.5C11.0717 15.5 10.1815 15.1313 9.52513 14.4749C8.86875 13.8185 8.5 12.9283 8.5 12C8.5 11.0717 8.86875 10.1815 9.52513 9.52513ZM12 9.5C11.337 9.5 10.7011 9.76339 10.2322 10.2322C9.76339 10.7011 9.5 11.337 9.5 12C9.5 12.663 9.76339 13.2989 10.2322 13.7678C10.7011 14.2366 11.337 14.5 12 14.5C12.663 14.5 13.2989 14.2366 13.7678 13.7678C14.2366 13.2989 14.5 12.663 14.5 12C14.5 11.337 14.2366 10.7011 13.7678 10.2322C13.2989 9.76339 12.663 9.5 12 9.5Z"  />
<path fill-rule="evenodd" clip-rule="evenodd" d="M9.8189 3.64329C9.48372 3.08275 8.76799 2.89704 8.22565 3.2197L8.21837 3.22403L6.48834 4.21396C5.82009 4.59582 5.59086 5.45859 5.97293 6.11986C6.48131 6.99695 6.59103 7.90837 6.17321 8.6334C5.75545 9.35834 4.91153 9.72 3.9 9.72C3.12785 9.72 2.5 10.3544 2.5 11.12V12.88C2.5 13.6456 3.12785 14.28 3.9 14.28C4.91153 14.28 5.75545 14.6417 6.17321 15.3666C6.59084 16.0913 6.48106 17.0028 5.97327 17.8796C5.78944 18.2009 5.74044 18.5819 5.83703 18.9393C5.93365 19.2968 6.16807 19.6014 6.48889 19.7863C6.48909 19.7865 6.48869 19.7862 6.48889 19.7863L8.22568 20.7802C8.76802 21.1029 9.48371 20.9172 9.81889 20.3567L9.92729 20.1695C10.4355 19.2926 11.1722 18.7425 12.0087 18.7425C12.8458 18.7425 13.5799 19.2929 14.0832 20.1704C14.0834 20.1707 14.0836 20.171 14.0838 20.1713L14.1911 20.3567C14.5263 20.9172 15.242 21.103 15.7844 20.7803L15.7916 20.776L17.5217 19.786C18.189 19.4047 18.4201 18.5518 18.0365 17.8791C17.5289 17.0025 17.4192 16.0912 17.8368 15.3666C18.2545 14.6417 19.0985 14.28 20.11 14.28C20.8821 14.28 21.51 13.6456 21.51 12.88V11.12C21.51 10.3478 20.8756 9.72 20.11 9.72C19.0985 9.72 18.2545 9.35834 17.8368 8.6334C17.419 7.90847 17.529 6.99659 18.0372 6.1196C18.4191 5.45836 18.1901 4.59592 17.5219 4.21412L15.7843 3.21976C15.242 2.89709 14.5263 3.08275 14.1911 3.64332L14.0827 3.83052C13.5745 4.70739 12.8378 5.2575 12.0012 5.2575C11.1642 5.2575 10.4301 4.7071 9.92678 3.82964C9.92659 3.82931 9.92641 3.82899 9.92622 3.82866L9.8189 3.64329ZM7.71823 2.35799C8.75455 1.74434 10.075 2.11799 10.6797 3.13435L10.6827 3.13946L10.7927 3.32948L10.7938 3.33133C11.1905 4.0233 11.6461 4.2575 12.0012 4.2575C12.3572 4.2575 12.8157 4.02239 13.2174 3.32926L13.3303 3.13433C13.9349 2.11797 15.2555 1.74433 16.2918 2.358L18.0181 3.34587C19.1698 4.00402 19.5609 5.48141 18.9029 6.62013C18.5013 7.31305 18.526 7.82662 18.7032 8.1341C18.8804 8.44165 19.3115 8.72 20.11 8.72C21.4244 8.72 22.51 9.79214 22.51 11.12V12.88C22.51 14.1944 21.4379 15.28 20.11 15.28C19.3115 15.28 18.8804 15.5583 18.7032 15.8659C18.526 16.1734 18.501 16.6863 18.9026 17.3793L18.9041 17.3819C19.5596 18.5291 19.1704 19.9956 18.0181 20.6541L16.2917 21.642C15.2554 22.2556 13.935 21.882 13.3303 20.8656L13.3273 20.8605L13.2173 20.6705L13.2162 20.6687C12.8195 19.9767 12.3639 19.7425 12.0087 19.7425C11.6528 19.7425 11.1943 19.9776 10.7926 20.6707L10.6797 20.8657C10.0751 21.882 8.75459 22.2556 7.71828 21.642L5.99166 20.654L5.99051 20.6533C5.43984 20.3362 5.03745 19.8136 4.87166 19.2002C4.70587 18.5868 4.79022 17.9327 5.1062 17.3814L5.10741 17.3793C5.50904 16.6863 5.48397 16.1734 5.30679 15.8659C5.12955 15.5583 4.69847 15.28 3.9 15.28C2.57215 15.28 1.5 14.1944 1.5 12.88V11.12C1.5 9.80557 2.57215 8.72 3.9 8.72C4.69847 8.72 5.12955 8.44165 5.30679 8.1341C5.48397 7.82662 5.50904 7.31364 5.10741 6.62073C4.44953 5.48209 4.84012 4.00425 5.99166 3.34603L7.71823 2.35799Z"/>
</svg>
